Coordinates
version=1
nRows=17
nColumns=24
inDegrees=yes

Units are S.I. units (second, meters, Newtons, ...)
Angles are in degrees.

endheader
time	pelvis_tilt	pelvis_list	pelvis_rotation	pelvis_tx	pelvis_ty	pelvis_tz	hip_flexion_r	hip_adduction_r	hip_rotation_r	knee_angle_r	ankle_angle_r	subtalar_angle_r	mtp_angle_r	hip_flexion_l	hip_adduction_l	hip_rotation_l	knee_angle_l	ankle_angle_l	subtalar_angle_l	mtp_angle_l	lumbar_extension	lumbar_bending	lumbar_rotation
      0.91700000	     -0.40195627	     -8.44062871	     -5.26584258	     -0.21792861	      0.99468987	      0.34073301	    -11.29665891	     10.48258554	     -4.41683091	    -10.47687980	      8.53851709	     -6.18686020	     -2.64886586	     23.66133400	    -10.11270315	    -13.10338656	     -2.06462453	      0.12043189	     -5.06173438	     -2.48046092	    -12.74335292	      9.40318566	      9.49798696
      0.92116667	     -0.31864919	     -8.32420426	     -5.40883417	     -0.21198777	      0.99437621	      0.34121799	    -11.52755803	     10.25461046	     -4.30293623	    -10.94065554	      8.65640702	     -5.96073148	     -2.55912133	     23.46074047	    -10.03068362	    -12.97499152	     -2.42775960	     -0.12199889	     -5.32730151	     -2.40996806	    -12.81429284	      9.12352052	      9.60323401
      0.92533333	     -0.23684348	     -8.16807850	     -5.55323515	     -0.20595537	      0.99414916	      0.34166278	    -11.73615164	      9.97207515	     -4.24797546	    -11.43012505	      8.67308011	     -5.68325735	     -2.45476239	     23.24335476	     -9.90283864	    -12.86473120	     -2.78420283	     -0.48144320	     -5.65878708	     -2.33003487	    -12.86180896	      8.79758862	      9.76123290
      0.92950000	     -0.14323251	     -8.02034453	     -5.67983261	     -0.19995417	      0.99398863	      0.34205974	    -11.93408392	      9.69733779	     -4.19288515	    -11.95261918	      8.66997051	     -5.42465299	     -2.33646675	     23.02566166	     -9.77615169	    -12.72266811	     -3.17443098	     -0.86325242	     -6.01407288	     -2.24145677	    -12.92648997	      8.48398861	      9.90334958
      0.93366667	     -0.03685182	     -7.85611792	     -5.79144975	     -0.19393744	      0.99390224	      0.34240936	    -12.12032491	      9.40094782	     -4.16126358	    -12.50976443	      8.61359083	     -5.16566866	     -2.19951647	     22.79456553	     -9.62415264	    -12.56967455	     -3.57191096	     -1.30689750	     -6.40586103	     -2.14279081	    -13.00514311	      8.15323251	     10.03211277
      0.93783333	      0.06195468	     -7.68244865	     -5.89052679	     -0.18789793	      0.99386460	      0.34271032	    -12.27087935	      9.09177179	     -4.15347426	    -13.10883419	      8.52105056	     -4.89986628	     -2.03718889	     22.57204670	     -9.45613283	    -12.40473604	     -3.97616376	     -1.78084674	     -6.82490794	     -2.03082180	    -13.06758223	      7.81151788	     10.14282853
      0.94200000	      0.12525823	     -7.51483568	     -5.98318568	     -0.18187144	      0.99383388	      0.34298011	    -12.34944778	      8.79314524	     -4.15016651	    -13.76308679	      8.36944539	     -4.67430892	     -1.87465549	     22.40070442	     -9.29552561	    -12.24434351	     -4.40566537	     -2.29334954	     -7.24603618	     -1.92602428	    -13.08599054	      7.49057411	     10.22502938
      0.94616667	      0.27044299	     -7.33520785	     -5.96764804	     -0.17586702	      0.99392402	      0.34293654	    -12.48169663	      8.47034004	     -4.30472240	    -14.45638680	      8.23154053	     -4.34758012	     -1.47530230	     22.16870082	     -9.05858848	    -11.93941272	     -4.84636618	     -2.78404123	     -7.84440068	     -1.67306271	    -13.20462768	      7.17074284	     10.32980269
      0.95033333	      0.31066710	     -7.14850653	     -6.06542626	     -0.16985402	      0.99397965	      0.34315272	    -12.45452483	      8.14426842	     -4.30878752	    -15.24578176	      7.99684709	     -4.16414326	     -1.17042699	     22.01018548	     -8.87799372	    -11.77674145	     -5.25772256	     -3.33514134	     -8.30729746	     -1.49730250	    -13.20355884	      6.84210324	     10.32510557
      0.95450000	      0.32414805	     -6.98420107	     -6.11546330	     -0.16378486	      0.99404966	      0.34333952	    -12.39636523	      7.85978827	     -4.32943299	    -16.01893324	      7.62905476	     -3.98678029	     -0.98086511	     21.91417276	     -8.71994125	    -11.65115880	     -5.72293884	     -3.92675429	     -8.65159826	     -1.39836312	    -13.16026738	      6.53482528	     10.34764908
      0.95866667	      0.35007805	     -6.79064863	     -6.16611169	     -0.15777070	      0.99418019	      0.34340610	    -12.28052574	      7.52456330	     -4.40738773	    -16.91882002	      7.31354699	     -3.78934153	     -0.74287494	     21.79535995	     -8.51461240	    -11.47827376	     -6.17076573	     -4.46869014	     -9.20085160	     -1.28359362	    -13.13764783	      6.20110626	     10.39014450
      0.96283333	      0.28542257	     -6.64773321	     -5.99005188	     -0.15177060	      0.99406445	      0.34286605	    -12.02557219	      7.26198429	     -4.79265348	    -17.87026484	      6.89940403	     -3.57139930	      7.11754336	     21.86587924	     -8.26146160	    -10.98570862	     -6.68576475	     -4.99621828	     -9.86227407	      2.33797907	    -13.00453612	      6.02713029	     10.19571804
      0.96700000	      0.39283129	     -6.44756959	     -6.04070473	     -0.14577815	      0.99445288	      0.34295373	    -11.92706316	      6.90880524	     -4.84105934	    -18.87255272	      6.46420135	     -3.44275870	      7.17069672	     21.64279477	     -8.05609284	    -10.90979661	     -7.11361461	     -5.50858291	    -10.30475206	      2.35417102	    -13.08571464	      5.67518526	     10.24066314
      0.97116667	      0.43064617	     -6.24877694	     -6.05879277	     -0.13972298	      0.99476540	      0.34299381	    -11.72434830	      6.57002708	     -4.92146193	    -19.91181170	      5.87743836	     -3.33153590	      7.22048346	     21.51171617	     -7.85261577	    -10.82556671	     -7.57890694	     -5.91345629	    -10.62212697	      2.36276840	    -13.07352408	      5.33465598	     10.22040796
      0.97533333	      0.43338685	     -6.06165919	     -5.95088574	     -0.13377111	      0.99496561	      0.34254697	    -11.40744434	      6.22745731	     -5.21883128	    -21.08948603	      5.41098545	     -3.05651621	      7.47143988	     21.45631518	     -7.58092222	    -10.49589610	     -8.04395591	     -6.34844961	    -11.25162264	      2.39838804	    -13.03108153	      5.08661852	     10.17131864
      0.97950000	      0.43350833	     -5.85752088	     -5.94007354	     -0.12779101	      0.99526674	      0.34247510	    -11.05651020	      5.87770780	     -5.34670267	    -22.31096200	      4.83119843	     -2.97192486	      7.66727826	     21.37491028	     -7.36314826	    -10.40364106	     -8.51281754	     -6.73098327	    -11.62642946	      2.41269374	    -12.98335390	      4.75861926	     10.06624684
      0.98366667	      0.40926977	     -5.65032648	     -5.84768407	     -0.12181402	      0.99551093	      0.34210158	    -10.63401334	      5.51181529	     -5.60046345	    -23.59851482	      4.19092442	     -2.78377889	      8.05810650	     21.33543741	     -7.09386725	    -10.17165371	     -8.98819403	     -7.00262041	    -12.08456022	      2.42931461	    -12.90483994	      4.47723300	      9.96908596
